<?xml version="1.0" encoding="UTF-8"?>
<!-- Full-bleed red icon. Same paper-plane as PH_Profile Logo.svg but
     without the circular clipPath — the red rect fills the entire
     512×512 viewBox so iOS's rounded-corner mask trims red from red
     (no white halo). Used for the iOS icon, the iOS splash, and the
     web favicon so all three read as one system. Gradient values
     preserved verbatim from the designer source. -->
<svg xmlns="http://www.w3.org/2000/svg" viewBox="0 0 512 512">
  <defs>
    <linearGradient id="bg" x1="0" y1="256" x2="512" y2="256" gradientUnits="userSpaceOnUse">
      <stop offset="0" stop-color="#c82127"/>
      <stop offset=".4" stop-color="#c52026"/>
      <stop offset=".6" stop-color="#bb1f25"/>
      <stop offset=".7" stop-color="#b41f24"/>
      <stop offset=".9" stop-color="#a51d21"/>
      <stop offset="1" stop-color="#9c1d20"/>
    </linearGradient>
  </defs>
  <rect width="512" height="512" fill="url(#bg)"/>
  <path fill="#fff" d="M239.6,259.3c0-1.2,3.6-2.5,4.5-2.6,3.4-.4,8.3-.8,12.3-.8s8.3.4,11.5.8c.9.1,4.3,1.4,4.3,2.6l-1.1,3.4s-.2,1.1-1.5,1c-2.7-.3-8.4-1.2-13.3-1.2s-10.9.8-13.8,1.1c-1.3.1-1.6-1.1-1.6-1.1l-1.3-3.2ZM342.4,276.2c6.5,0,11.8,5.4,11.8,12s-5.3,11.9-11.7,12c-6.5-.1-11.8-5.3-12.1-12,0-6.8,5.5-12,12-12M181.9,288.1c-.2,6.7-5.6,11.8-12.1,12-6.5,0-11.7-5.4-11.7-12s5.3-12,11.8-12,12,5.2,12,12M256.5,296.9c11.1,0,20.6-6.5,25.3-16,11.3-3.9,30.3-6.3,41-7.8l1.4-.2c.2,0,.3,0,.6,0,.6,0,1.2-.2,1.7-.2h0c6-.6,5,2,4.2,3.1-3.2,3.1-5.1,7.5-5.1,12.4,0,9.4,7.5,17,16.8,17,9.1-.1,16.6-7.6,16.6-17s-4.5-13.4-10.7-15.8c0,0,0,0,0,0-1.4-1.3.4-2.1,2.1-2.5l115.4-12.9c22.1-2.9,19.5-19.5,19.5-19.5,0,0-.6,0-.6,0-.2,12.5-19.2,13.4-19.2,13.4-32.1,3-71.1,7.6-105.4,10.3-33.8,2.7-62.8,4-75.5,4.6-.3-3.6-1.2-7-2.6-10.1-.2-.8-.4-1.6-.7-2.4l38.3-12.9c0-.1,2.3-.9,2.1-1.4-.2-.6-2.4-.1-2.4-.1l-39.7,10.4c-4.1-7.9-12-13.4-21.2-14.1l-1.5-44.9c0-.7-.4-1.3-.8-1.3h-.2c-.5,0-.8.6-.8,1.3l-1.5,44.9c-9.2.7-17.1,6.2-21.2,14.1l-39.7-10.4s-2.2-.5-2.4.1c-.1.5,2.1,1.3,2.1,1.4l38.3,12.9c-.3.8-.5,1.6-.7,2.4-1.4,3.1-2.3,6.5-2.6,10.1-12.7-.5-41.7-1.9-75.5-4.6-34.2-2.7-73.2-7.3-105.4-10.3,0,0-18.9-.9-19.2-13.4,0,.1-.6,0-.6,0,0,0-2.6,16.6,19.5,19.5l115.4,12.9c1.7.4,3.5,1.1,2.1,2.5,0,0,0,0,0,0-6.3,2.5-10.7,8.6-10.7,15.8s7.5,16.9,16.6,17c9.3,0,16.8-7.6,16.8-17s-2-9.2-5.1-12.4c-.8-1.2-1.8-3.7,4.2-3.1h0c.5,0,1.1.1,1.7.2.2,0,.4,0,.6,0l1.4.2c10.7,1.5,29.7,3.9,41,7.8,4.6,9.5,14.2,16,25.3,16h.9Z"/>
</svg>
